<svg clip-rule="evenodd" fill-rule="evenodd" stroke-linejoin="round" stroke-miterlimit="2" viewBox="48 52 448 68" xmlns="http://www.w3.org/2000/svg"><g fill="currentColor" transform="matrix(1.98031 0 0 1.98031 72.1181 43.27)"><path d="m65.003 20.741s2.991.389 2.991 4.083v5.055c0 3.694-1.751 5.445-5.446 5.445h-9.991v-27.222h9.529c3.694 0 5.443 1.75 5.443 5.445v3.499c0 2.917-2.526 3.306-2.526 3.306zm-8.167-8.75v7h4.083c1.75 0 2.334-.584 2.334-2.333v-2.334c0-1.75-.584-2.333-2.334-2.333zm6.879 17.111v-3.89c0-1.749-.584-2.332-2.333-2.332h-4.546v8.555h4.546c1.749 0 2.333-.584 2.333-2.333zm12.201 2.333h10.305v3.889h-14.583v-27.222h4.278zm28.461-1.167c0 3.695-1.75 5.445-5.444 5.445h-5.444c-3.696 0-5.445-1.75-5.445-5.445v-22.166h4.287l-.009 21.388c0 1.75.583 2.333 2.333 2.333h3.112c1.749 0 2.332-.583 2.332-2.333l-.009-21.388h4.287zm7.923-10.694h8.167v3.889h-8.167v7.972h10.888v3.889h-15.167v-27.222h14.799v3.889h-10.52zm37.521 0h8.167v3.889h-8.167v7.972h10.888v3.889h-15.167v-27.222h14.773v3.889h-10.494zm24.402-11.473 6.7 27.221-4.502.002-1.375-6.416h-6.612l-1.374 6.416h-4.503l6.703-27.222zm-5.01 16.918h5.056l-2.334-10.5h-.389zm22.775 10.305-4.551-16.722h-.388l.01 16.722h-4.288v-27.223h5.569l5.125 18.862h.389l5.126-18.862h5.568v27.223h-4.287l.01-16.722h-.389l-4.542 16.722zm-53.08-14.583s2.99.389 2.99 4.083v5.055c0 3.694-1.75 5.445-5.445 5.445h-9.991v-27.222h9.529c3.694 0 5.443 1.75 5.443 5.445v3.499c0 2.917-2.526 3.306-2.526 3.306zm-8.167-8.75v7h4.083c1.75 0 2.334-.584 2.334-2.333v-2.334c0-1.75-.584-2.333-2.334-2.333zm6.879 17.111v-3.89c0-1.749-.584-2.332-2.334-2.332h-4.545v8.555h4.545c1.75 0 2.334-.584 2.334-2.333zm-123.739-28.228h27.764v41.644h-41.645v-41.644h6.941v34.703h27.763v-27.763h-20.823zm0 27.762v-13.881h13.882v13.881z"/></g></svg>
